<?xml version="1.0" encoding="UTF-8"?>
<!DOCTYPE svg PUBLIC "-//W3C//DTD SVG 1.1//EN" "http://www.w3.org/Graphics/SVG/1.1/DTD/svg11.dtd">
<svg xmlns="http://www.w3.org/2000/svg" version="1.1" width="300px" height="300px" style="shape-rendering:geometricPrecision; text-rendering:geometricPrecision; image-rendering:optimizeQuality; fill-rule:evenodd; clip-rule:evenodd" xmlns:xlink="http://www.w3.org/1999/xlink">
<g><path style="opacity:1" fill="#fefcfc" d="M -0.5,-0.5 C 99.5,-0.5 199.5,-0.5 299.5,-0.5C 299.5,99.5 299.5,199.5 299.5,299.5C 199.5,299.5 99.5,299.5 -0.5,299.5C -0.5,199.5 -0.5,99.5 -0.5,-0.5 Z"/></g>
<g><path style="opacity:1" fill="#e62204" d="M 66.5,15.5 C 96.8856,14.385 124.719,22.0517 150,38.5C 162.792,30.0232 176.626,23.5232 191.5,19C 216.28,13.8399 240.28,16.1733 263.5,26C 295.312,44.505 305.145,71.3383 293,106.5C 277.155,138.694 251.989,160.027 217.5,170.5C 215.296,170.473 214.462,169.473 215,167.5C 230.588,156.58 244.255,143.58 256,128.5C 267.371,113.382 272.037,96.3819 270,77.5C 263.158,57.3271 249.324,44.8271 228.5,40C 211.846,35.9784 195.513,36.9784 179.5,43C 169.024,47.4035 159.024,52.5702 149.5,58.5C 122.728,37.7444 93.0611,32.2444 60.5,42C 28.5506,58.0491 21.0506,81.8824 38,113.5C 48.3118,126.4 60.8118,136.566 75.5,144C 97.708,155.26 121.208,162.094 146,164.5C 165.84,161.41 182.173,152.077 195,136.5C 205.735,122.831 209.068,107.498 205,90.5C 197.816,77.7704 187.316,73.9371 173.5,79C 170.833,80.6667 168.167,82.3333 165.5,84C 160.195,89.507 155.028,95.007 150,100.5C 145.308,95.006 140.475,89.506 135.5,84C 126.894,76.863 117.227,74.863 106.5,78C 94.0584,84.9891 90.5584,95.1558 96,108.5C 102.237,120.369 111.404,129.203 123.5,135C 131.05,138.608 138.717,141.942 146.5,145C 147.337,146.011 147.67,147.178 147.5,148.5C 124.992,147.207 104.325,140.374 85.5,128C 76.86,121.697 70.0267,113.863 65,104.5C 58.365,81.1484 66.5317,65.6484 89.5,58C 104.349,55.1414 118.349,57.4748 131.5,65C 138.138,69.2352 144.305,74.0685 150,79.5C 160.36,70.2326 172.194,63.3993 185.5,59C 200.649,55.3295 214.149,58.4962 226,68.5C 235.102,79.2266 238.102,91.56 235,105.5C 228.482,129.349 214.982,148.183 194.5,162C 182.185,169.334 169.185,175.334 155.5,180C 110.688,179.508 70.6879,165.508 35.5,138C 22.1568,127 12.3234,113.5 6,97.5C -4.07827,58.1541 10.0884,31.9875 48.5,19C 54.6337,17.7923 60.6337,16.6256 66.5,15.5 Z"/></g>
<g><path style="opacity:1" fill="#e7270a" d="M 241.5,172.5 C 243.833,172.5 246.167,172.5 248.5,172.5C 245.918,184.329 243.252,196.163 240.5,208C 240.667,208.5 240.833,209 241,209.5C 247.21,204.958 252.376,199.458 256.5,193C 261.498,191.67 263.664,193.504 263,198.5C 262.439,200.725 261.439,202.725 260,204.5C 255.767,208.733 251.6,212.9 247.5,217C 251.347,224.68 257.014,230.513 264.5,234.5C 262.513,236.556 260.013,237.556 257,237.5C 253.093,236.964 249.593,235.464 246.5,233C 243.036,228.578 240.203,223.744 238,218.5C 236.482,223.811 235.148,229.145 234,234.5C 230.512,237.462 227.845,236.795 226,232.5C 225.333,229.5 225.333,226.5 226,223.5C 230.379,208.604 234.379,193.604 238,178.5C 238.564,176.113 239.73,174.113 241.5,172.5 Z"/></g>
<g><path style="opacity:1" fill="#e7280b" d="M 277.5,183.5 C 281.708,184.305 285.875,184.305 290,183.5C 292.034,183.354 293.701,184.02 295,185.5C 296.28,200.661 291.78,213.828 281.5,225C 265.851,232.046 259.351,226.88 262,209.5C 264.898,199.353 270.065,190.686 277.5,183.5 Z"/></g>
<g><path style="opacity:1" fill="#e7280b" d="M 199.5,192.5 C 201.833,192.5 204.167,192.5 206.5,192.5C 206.051,195.29 206.051,197.956 206.5,200.5C 220.188,196.012 226.354,201.012 225,215.5C 223.699,227.622 218.199,237.122 208.5,244C 203.867,246.607 200.033,245.774 197,241.5C 194.82,251.067 193.154,260.733 192,270.5C 189.413,273.034 186.747,273.034 184,270.5C 183.333,266.5 183.333,262.5 184,258.5C 187.941,236.077 193.108,214.077 199.5,192.5 Z"/></g>
<g><path style="opacity:1" fill="#fef2f0" d="M 282.5,193.5 C 283.5,193.5 284.5,193.5 285.5,193.5C 284.365,202.071 281.531,210.071 277,217.5C 272.346,223.406 269.513,222.739 268.5,215.5C 268.842,211.14 270.175,207.14 272.5,203.5C 273.72,204.711 274.887,204.711 276,203.5C 277.928,199.968 280.095,196.634 282.5,193.5 Z"/></g>
<g><path style="opacity:1" fill="#e7280b" d="M 181.5,207.5 C 181.281,208.675 181.614,209.675 182.5,210.5C 183.107,210.376 183.44,210.043 183.5,209.5C 186.061,209.447 188.061,210.447 189.5,212.5C 188.391,214.385 187.557,216.385 187,218.5C 184.906,230.162 182.906,241.828 181,253.5C 178.006,254.89 176.006,253.89 175,250.5C 174.667,244.833 174.333,239.167 174,233.5C 170.287,238.424 166.454,243.258 162.5,248C 156.606,250.813 152.773,248.98 151,242.5C 150.21,229.202 154.377,217.702 163.5,208C 168.324,204.676 173.657,203.676 179.5,205C 180.381,205.708 181.047,206.542 181.5,207.5 Z"/></g>
<g><path style="opacity:1" fill="#fef4f2" d="M 210.5,204.5 C 212.467,204.261 214.301,204.594 216,205.5C 217.988,218.041 214.154,228.375 204.5,236.5C 203.054,235.829 202.388,234.662 202.5,233C 203.957,228.798 205.29,224.631 206.5,220.5C 204.278,220.178 202.444,220.845 201,222.5C 201.766,215.304 204.933,209.304 210.5,204.5 Z"/></g>
<g><path style="opacity:1" fill="#f38f7e" d="M 181.5,207.5 C 182.167,208.167 182.833,208.833 183.5,209.5C 183.44,210.043 183.107,210.376 182.5,210.5C 181.614,209.675 181.281,208.675 181.5,207.5 Z"/></g>
<g><path style="opacity:1" fill="#fef3f2" d="M 170.5,213.5 C 173.599,213.092 175.933,214.259 177.5,217C 171.333,225.167 165.167,233.333 159,241.5C 158.135,230.23 161.969,220.897 170.5,213.5 Z"/></g>
<g><path style="opacity:1" fill="#e62609" d="M 89.5,213.5 C 91.8568,213.337 94.1902,213.503 96.5,214C 97.0585,214.725 97.3918,215.558 97.5,216.5C 95.0818,224.083 93.0818,231.75 91.5,239.5C 92.2456,241.677 93.2456,243.677 94.5,245.5C 92.2581,247.415 90.0915,249.415 88,251.5C 86.7487,258.867 84.9153,266.034 82.5,273C 81.2161,273.684 80.0495,273.517 79,272.5C 78.5004,265.842 78.3337,259.175 78.5,252.5C 75.0441,252.596 71.8774,253.596 69,255.5C 67.7758,260.386 67.1091,265.386 67,270.5C 64.146,273.016 61.4793,272.683 59,269.5C 59.0357,255.34 60.7023,241.34 64,227.5C 65.9867,222.728 69.32,221.395 74,223.5C 72.8918,231.15 71.8918,238.816 71,246.5C 73.6604,245.166 76.4937,244.332 79.5,244C 81.0894,236.81 82.9228,229.643 85,222.5C 85.9862,219.194 87.4862,216.194 89.5,213.5 Z"/></g>
<g><path style="opacity:1" fill="#e62507" d="M 25.5,213.5 C 26.5,213.5 27.5,213.5 28.5,213.5C 28.0739,224.649 26.5739,235.649 24,246.5C 23.3333,253.5 23.3333,260.5 24,267.5C 30.0257,252.448 37.3591,238.114 46,224.5C 47.5,223 49,221.5 50.5,220C 53.3471,219.056 55.8471,219.556 58,221.5C 56.8661,232.518 55.1994,243.518 53,254.5C 52.1381,264.153 51.4714,273.82 51,283.5C 48.7658,284.705 47.0992,284.039 46,281.5C 45.1779,279.212 44.5112,276.878 44,274.5C 43.4432,264.793 43.4432,255.127 44,245.5C 38.9673,256.936 34.134,268.436 29.5,280C 20.9728,282.865 15.8061,279.699 14,270.5C 12.1979,254.114 13.8645,238.114 19,222.5C 20.6749,219.015 22.8416,216.015 25.5,213.5 Z"/></g>
<g><path style="opacity:1" fill="#e72709" d="M 139.5,213.5 C 142.808,212.974 144.974,214.307 146,217.5C 146.335,229.562 147.002,241.562 148,253.5C 144.512,256.462 141.845,255.795 140,251.5C 137.987,244.326 136.987,236.992 137,229.5C 132.334,238.169 127.168,246.502 121.5,254.5C 117.895,256.306 115.395,255.306 114,251.5C 113.667,243.5 113.333,235.5 113,227.5C 107.034,237.728 103.701,248.728 103,260.5C 100.333,264.5 97.6667,264.5 95,260.5C 94.3333,257.167 94.3333,253.833 95,250.5C 98.5311,237.199 104.698,225.366 113.5,215C 120.998,215.184 124.332,219.184 123.5,227C 122.949,231.508 122.782,236.008 123,240.5C 127.507,230.805 133.007,221.805 139.5,213.5 Z"/></g>
</svg>
